<svg width="78" height="33" viewBox="0 0 78 33" fill="none" xmlns="http://www.w3.org/2000/svg">
<path d="M6.872 32.448C5.528 32.448 4.344 32.128 3.32 31.488C2.31733 30.848 1.528 29.952 0.952 28.8C0.397333 27.648 0.12 26.3253 0.12 24.832C0.12 23.2107 0.44 21.7707 1.08 20.512C1.72 19.2533 2.584 18.2613 3.672 17.536C4.78133 16.8107 6.04 16.448 7.448 16.448C8.19467 16.448 8.93067 16.5973 9.656 16.896C10.3813 17.1733 10.9893 17.5573 11.48 18.048V16.736C11.672 16.672 11.896 16.6187 12.152 16.576C12.408 16.5333 12.6747 16.512 12.952 16.512C13.464 16.512 13.944 16.5867 14.392 16.736V26.4C14.392 27.5733 14.5413 28.416 14.84 28.928C15.16 29.44 15.6613 29.696 16.344 29.696C16.6427 29.696 16.8667 29.824 17.016 30.08C17.1867 30.336 17.272 30.6773 17.272 31.104C17.272 31.4453 17.176 31.7547 16.984 32.032C16.8133 32.3093 16.5253 32.448 16.12 32.448C14.0933 32.448 12.728 31.616 12.024 29.952C11.4053 30.7413 10.6587 31.36 9.784 31.808C8.90933 32.2347 7.93867 32.448 6.872 32.448ZM3.096 24.832C3.096 26.3467 3.43733 27.5413 4.12 28.416C4.824 29.2693 5.784 29.696 7 29.696C8.344 29.696 9.42133 29.2373 10.232 28.32C11.064 27.4027 11.48 26.1973 11.48 24.704V21.12C11.0533 20.544 10.5093 20.0853 9.848 19.744C9.18667 19.3813 8.504 19.2 7.8 19.2C6.88267 19.2 6.072 19.4453 5.368 19.936C4.664 20.4267 4.10933 21.0987 3.704 21.952C3.29867 22.784 3.096 23.744 3.096 24.832ZM16.119 32.448C15.8417 32.448 15.6177 32.32 15.447 32.064C15.2763 31.808 15.191 31.4773 15.191 31.072C15.191 30.6453 15.2977 30.3147 15.511 30.08C15.703 29.824 15.9697 29.696 16.311 29.696C17.2497 29.696 18.1457 29.28 18.999 28.448C19.8737 27.5947 20.8443 26.176 21.911 24.192V7.072C21.911 4.93866 22.359 3.296 23.255 2.144C24.1723 0.991999 25.495 0.426665 27.223 0.447998C28.8017 0.469331 30.0283 1.06666 30.903 2.24C31.799 3.41333 32.247 4.93866 32.247 6.816C32.247 8.24533 32.0017 9.81333 31.511 11.52C31.0417 13.2267 30.391 14.8907 29.559 16.512C29.8577 16.4693 30.167 16.448 30.487 16.448C31.8737 16.448 32.983 16.864 33.815 17.696C34.647 18.528 35.063 19.6267 35.063 20.992C35.063 22.1013 34.6683 23.0827 33.879 23.936C33.0897 24.7893 32.0337 25.4293 30.711 25.856C31.1377 26.1547 31.5323 26.5067 31.895 26.912L32.951 28.128C33.8683 29.1733 34.839 29.696 35.863 29.696C36.1403 29.696 36.3643 29.824 36.535 30.08C36.7057 30.336 36.791 30.6773 36.791 31.104C36.791 32 36.3963 32.448 35.607 32.448C34.903 32.448 34.199 32.2667 33.495 31.904C32.8123 31.52 32.151 30.9973 31.511 30.336L30.167 28.896C29.655 28.3413 29.175 27.9147 28.727 27.616C28.279 27.296 27.7563 27.0827 27.159 26.976C26.583 26.848 25.8257 26.784 24.887 26.784C24.8657 27.1253 24.855 27.4667 24.855 27.808V32C24.6417 32.064 24.407 32.1173 24.151 32.16C23.895 32.2027 23.6497 32.224 23.415 32.224C22.9243 32.224 22.423 32.1493 21.911 32V29.376C21.0363 30.5067 20.1403 31.3067 19.223 31.776C18.327 32.224 17.2923 32.448 16.119 32.448ZM24.759 7.04V19.392C25.719 17.92 26.5403 16.4373 27.223 14.944C27.927 13.4507 28.4603 12.0107 28.823 10.624C29.207 9.216 29.399 7.936 29.399 6.784C29.399 5.58933 29.1963 4.68267 28.791 4.064C28.407 3.424 27.8417 3.104 27.095 3.104C25.5377 3.104 24.759 4.416 24.759 7.04ZM29.975 18.976C28.8443 18.976 27.8523 19.4773 26.999 20.48C26.167 21.4827 25.5697 22.8053 25.207 24.448C25.5697 24.4907 25.9857 24.512 26.455 24.512C27.5643 24.512 28.5563 24.3627 29.431 24.064C30.3057 23.7653 30.9883 23.36 31.479 22.848C31.991 22.336 32.247 21.76 32.247 21.12C32.247 20.48 32.0337 19.968 31.607 19.584C31.2017 19.1787 30.6577 18.976 29.975 18.976ZM35.6502 32.448C35.3729 32.448 35.1489 32.32 34.9782 32.064C34.8076 31.808 34.7222 31.4773 34.7222 31.072C34.7222 30.1547 35.1062 29.696 35.8742 29.696C36.5569 29.696 37.3143 29.28 38.1463 28.448C38.9783 27.5947 39.9489 26.2293 41.0583 24.352L44.4823 18.56C44.4396 18.2613 44.4183 17.9413 44.4183 17.6C44.4183 16.5333 44.6103 15.744 44.9943 15.232C45.3996 14.72 45.7303 14.4107 45.9863 14.304C46.3489 14.2187 46.7329 14.2293 47.1383 14.336C47.5649 14.4213 47.9489 14.5707 48.2903 14.784C48.6316 14.9973 48.8663 15.2533 48.9943 15.552C48.9089 15.936 48.7489 16.3947 48.5143 16.928C48.2796 17.4613 47.9063 18.176 47.3943 19.072C47.5436 19.3067 47.7356 19.5413 47.9703 19.776C48.2049 20.0107 48.4929 20.2667 48.8343 20.544L51.2663 22.528C52.1409 23.232 52.7916 23.968 53.2183 24.736C53.6663 25.4827 53.8903 26.3253 53.8903 27.264C53.8903 28.3947 53.5703 29.3973 52.9303 30.272C53.0369 30.5067 53.0903 30.784 53.0903 31.104C53.0903 31.5093 52.9836 31.8293 52.7703 32.064C52.5783 32.32 52.3009 32.448 51.9383 32.448C51.5969 32.448 51.2663 32.4267 50.9463 32.384C50.6263 32.3413 50.2743 32.288 49.8903 32.224C49.3143 32.3733 48.7063 32.448 48.0663 32.448C47.3196 32.448 46.5729 32.3307 45.8263 32.096C45.0796 31.8827 44.3009 31.5307 43.4903 31.04C43.4476 29.9093 43.8743 29.0773 44.7703 28.544C45.9436 29.312 47.0529 29.696 48.0983 29.696C48.9943 29.696 49.7089 29.4613 50.2423 28.992C50.7756 28.5013 51.0423 27.8827 51.0423 27.136C51.0423 26.1973 50.5303 25.3227 49.5063 24.512L47.0743 22.592C46.6476 22.2507 46.2636 21.8987 45.9223 21.536L42.7223 26.944C41.5489 28.928 40.4183 30.3467 39.3303 31.2C38.2636 32.032 37.0369 32.448 35.6502 32.448ZM51.9517 32.448C51.6744 32.448 51.4504 32.32 51.2797 32.064C51.0877 31.808 50.9917 31.4773 50.9917 31.072C50.9917 30.176 51.3864 29.728 52.1757 29.728C53.7117 29.728 55.1197 29.1947 56.3997 28.128C57.6798 27.04 58.8211 25.4933 59.8238 23.488V7.072C59.8238 4.93866 60.2718 3.296 61.1678 2.144C62.0851 0.991999 63.4078 0.426665 65.1358 0.447998C66.7144 0.469331 67.9411 1.06666 68.8158 2.24C69.7118 3.41333 70.1598 4.93866 70.1598 6.816C70.1598 9.93067 69.2211 13.3973 67.3438 17.216C67.4931 17.1947 67.6424 17.184 67.7918 17.184C69.3918 17.184 70.6611 17.7493 71.5998 18.88C72.5598 20.0107 73.0398 21.5253 73.0398 23.424V26.176C73.0398 27.4133 73.1891 28.3093 73.4878 28.864C73.8078 29.4187 74.3304 29.696 75.0558 29.696C75.2904 29.696 75.5464 29.6427 75.8238 29.536C76.1011 29.4293 76.3891 29.2693 76.6878 29.056C77.0504 29.2267 77.3491 29.5253 77.5838 29.952C77.8184 30.3573 77.9251 30.7627 77.9038 31.168C77.5624 31.552 77.1251 31.8613 76.5918 32.096C76.0584 32.3307 75.4824 32.448 74.8638 32.448C73.3278 32.448 72.1438 31.9573 71.3118 30.976C70.5011 29.9733 70.0958 28.5653 70.0958 26.752V23.36C70.0958 22.272 69.8504 21.4293 69.3598 20.832C68.8904 20.2133 68.2184 19.904 67.3438 19.904C66.4904 19.904 65.7224 20.192 65.0398 20.768C64.3571 21.3227 63.8131 22.0907 63.4078 23.072C63.0024 24.0533 62.7891 25.184 62.7678 26.464V32C62.5544 32.064 62.3198 32.1173 62.0638 32.16C61.8078 32.2027 61.5624 32.224 61.3278 32.224C60.8371 32.224 60.3358 32.1493 59.8238 32V28.416C58.7784 29.7813 57.5731 30.7947 56.2078 31.456C54.8424 32.1173 53.4237 32.448 51.9517 32.448ZM62.6718 7.04V19.648C64.1651 17.3867 65.3064 15.1467 66.0958 12.928C66.9064 10.7093 67.3118 8.66133 67.3118 6.784C67.3118 5.58933 67.1091 4.68267 66.7038 4.064C66.3198 3.424 65.7544 3.104 65.0078 3.104C63.4504 3.104 62.6718 4.416 62.6718 7.04Z" fill="#280F00"/>
</svg>
