<svg width="1024" height="768" viewBox="0 0 1024 768" fill="none" xmlns="http://www.w3.org/2000/svg">
<g clip-path="url(#clip0_35_47)">
<rect width="1024" height="768" fill="#FF7A00"/>
<path d="M-36.6743 137.825L-18.9744 136.662C-14.5591 136.388 -10.6202 133.912 -8.40812 130.08L-2.43169 119.729C2.07004 111.932 12.8621 110.858 18.8059 117.561L26.3639 126.048C30.2722 130.455 36.3339 132.297 42.0593 130.763C50.1173 128.603 53.8218 119.315 49.4153 112.2L43.4078 102.503C38.7817 94.9926 42.6764 85.1421 51.2115 82.8551L52.4308 82.5284C59.5345 80.625 65.2093 75.2975 67.5556 68.362L70.941 58.307C72.7023 53.0055 70.9665 47.1637 66.5821 43.7361L54.9931 34.6253C47.5867 28.8257 48.4851 17.3348 56.7416 12.7361L65.143 8.04176C68.849 5.96917 71.33 2.29301 71.8446 -1.93584L74.729 -25.9476C62.2413 -26.7493 49.3599 -25.6274 36.5308 -22.1898C-24.3808 -5.8686 -60.511 56.7108 -44.1898 117.622C-42.2864 124.726 -39.7364 131.486 -36.6743 137.825ZM180.112 82.3508C178.479 82.6179 176.917 83.1501 175.454 84.0533L167.703 88.6302C164.422 90.5892 160.26 90.1134 157.475 87.5642L155.974 86.2049C151.458 82.074 145.135 80.5296 139.198 82.1205C133.26 83.7114 128.556 88.2105 126.711 94.0459L124.827 99.9486C124.397 101.314 123.607 102.605 122.558 103.568L106.289 119.404C98.1288 127.33 97.3736 140.203 104.564 149.015L109.241 154.807C116.528 163.764 129.565 165.555 139.01 158.819L140.246 157.92C145.022 154.538 151.226 153.728 156.68 155.846L157.631 156.216C173.161 135.293 181.47 109.26 180.098 82.2978L180.112 82.3508ZM-69.6359 124.441C-79.2803 88.4475 -74.2314 50.0973 -55.5999 17.8267C-36.9685 -14.444 -6.28064 -37.9916 29.7126 -47.6359C65.7058 -57.2803 104.056 -52.2314 136.327 -33.5999C168.597 -14.9685 192.145 15.7194 201.789 51.7126C211.434 87.7058 206.385 126.056 187.753 158.327C169.122 190.597 138.434 214.145 102.441 223.789C66.4475 233.434 28.0973 228.385 -4.17334 209.753C-36.444 191.122 -59.9916 160.434 -69.6359 124.441ZM20.05 152.74C20.1583 157.597 24.1508 161.47 28.9552 161.376L47.0557 161.072C51.913 160.964 55.7865 156.971 55.6924 152.167C55.5982 147.362 51.5916 143.436 46.7872 143.53L28.6867 143.834C23.8293 143.943 19.9559 147.935 20.05 152.74ZM65.9808 129.069C66.0891 133.926 70.0816 137.8 74.886 137.705C79.6903 137.611 83.6168 133.605 83.5227 128.8L83.2182 110.7C83.1099 105.842 79.1174 101.969 74.313 102.063C69.5086 102.157 65.5821 106.164 65.6763 110.968L65.9808 129.069ZM92.0904 0.253026C87.3342 -0.745311 82.7138 2.36776 81.7154 7.12396L77.7789 26.3608C76.7806 31.117 79.8936 35.7374 84.6498 36.7358C89.406 37.7341 94.0265 34.621 95.0248 29.8649L98.9614 10.628C99.9597 5.87183 96.8466 1.25136 92.0904 0.253026Z" fill="white" fill-opacity="0.25"/>
<path d="M975.648 491.176C984.917 399.532 967.798 328.855 928.649 318.365C889.5 307.875 839.336 360.523 801.542 444.524L975.648 491.176ZM768.867 536.959C763.017 558.791 758.584 580.055 755.248 600.769L937.518 649.609C944.986 630.001 951.779 609.37 957.629 587.537C963.479 565.705 967.912 544.441 971.248 523.727L788.978 474.887C781.51 494.495 774.717 515.126 768.867 536.959ZM1113.56 528.128C1103.32 453.813 1060.2 386.922 995.453 347.227C1010.55 386.899 1013.66 441.385 1007.32 499.663L1113.56 528.128ZM856.266 309.932C780.447 311.963 709.56 348.307 663.634 407.572L769.868 436.037C793.42 382.372 823.358 336.742 856.266 309.932ZM1115.65 562.419L1002.82 532.187C999.355 553.393 994.87 574.854 989.205 595.998C983.539 617.142 976.693 637.97 969.094 658.069L1081.82 688.274C1092.63 669.563 1101.29 649.433 1107.14 627.6C1112.99 605.767 1115.56 584.003 1115.65 562.419ZM737.39 528.524C743.056 507.38 749.901 486.552 757.501 466.453L644.676 436.222C633.962 454.96 625.202 475.064 619.352 496.896C613.502 518.729 611.037 540.52 610.946 562.104L723.673 592.309C727.239 571.129 731.724 549.669 737.39 528.524ZM750.947 633.347C741.678 724.991 758.796 795.668 797.945 806.158C837.095 816.648 887.258 763.999 925.053 679.999L750.947 633.347ZM870.328 814.59C946.148 812.56 1017.03 776.216 1063.06 716.977L956.825 688.512C933.175 742.151 903.236 787.781 870.328 814.59ZM613.039 596.395C623.279 670.709 666.397 737.601 731.142 777.295C716.048 737.624 712.935 683.138 719.273 624.86L613.039 596.395Z" fill="white" fill-opacity="0.25"/>
</g>
<defs>
<clipPath id="clip0_35_47">
<rect width="1024" height="768" fill="white"/>
</clipPath>
</defs>
</svg>
