<svg width="442" height="37" viewBox="0 0 442 37" fill="none" xmlns="http://www.w3.org/2000/svg">
<path d="M17 3C7.61093 3 0 10.6109 0 20C0 29.3891 7.61093 37 17 37C26.3891 37 34 29.3891 34 20C34 10.6109 26.3891 3 17 3ZM16.2227 19.4674C16.0246 19.7978 15.6674 20 15.2822 20H15.2609C14.9703 20 14.6913 20.1158 14.4856 20.3215L14.0977 20.7095C13.8838 20.9233 13.8838 21.2709 14.0977 21.4848L14.4856 21.8727C14.6913 22.0784 14.8071 22.3574 14.8071 22.648V23.2903C14.8071 23.8963 14.3163 24.3871 13.7104 24.3871H13.2915C12.8761 24.3871 12.4964 24.1527 12.3106 23.7804L10.76 20.68C10.5928 20.3455 10.1465 20.2728 9.88194 20.5374L8.5473 21.8714C8.34165 22.077 8.06266 22.1929 7.77202 22.1929H3.48294C3.3671 21.4772 3.29032 20.7485 3.29032 20C3.29032 12.4405 9.44048 6.29032 17 6.29032C18.4745 6.29032 19.8927 6.53093 21.2246 6.96347L17.7863 9.60464C17.436 9.83839 17.4689 10.3628 17.8452 10.5513L18.5876 10.9221C18.9591 11.1079 19.1935 11.4877 19.1935 11.9031V17.2581C19.1935 17.561 18.9481 17.8065 18.6452 17.8065H18.4354C18.2277 17.8065 18.0378 17.6892 17.9453 17.5035C17.8383 17.2896 17.5367 17.2779 17.4133 17.4829L16.2227 19.4674ZM27.9677 27.0214C27.9677 27.3121 27.8519 27.591 27.6462 27.7967L26.9902 28.4527C26.7846 28.6583 26.5056 28.7742 26.215 28.7742H25.1758C24.8851 28.7742 24.6061 28.6583 24.4005 28.4527L23.5087 27.5609C23.2846 27.3368 23.0064 27.1746 22.701 27.0901C22.3956 27.0055 22.0736 27.0014 21.7662 27.0783L20.3081 27.443C20.2211 27.4649 20.132 27.4759 20.0422 27.4759H19.3334C19.0427 27.4759 18.7638 27.36 18.5581 27.1544L17.7417 26.338C17.6389 26.235 17.5812 26.0955 17.5813 25.95V25.2508C17.5813 25.0267 17.7177 24.8251 17.9261 24.7415L20.6228 23.6625C20.7585 23.6084 20.8874 23.5378 21.006 23.4535L22.6313 22.2957C22.7241 22.2295 22.8353 22.1941 22.9493 22.1942H23.7781C23.9995 22.1942 24.1996 22.3272 24.2846 22.5322L24.6514 23.413C24.6722 23.4629 24.7073 23.5056 24.7523 23.5356C24.7973 23.5656 24.8502 23.5816 24.9043 23.5817H25.1648C25.2868 23.5817 25.3944 23.5008 25.428 23.3842L25.7159 22.3923C25.7502 22.2751 25.8571 22.1949 25.9792 22.1949H26.3946C26.546 22.1949 26.6688 22.3176 26.6688 22.4691V23.3554C26.6688 23.5008 26.7263 23.6406 26.8292 23.7434L27.6456 24.5598C27.8512 24.7655 27.9671 25.0445 27.9671 25.3351V27.0214H27.9677Z" fill="#280F00"/>
<path d="M73.48 25.796C73.696 25.892 73.804 26.036 73.804 26.228C73.804 26.252 73.792 26.288 73.768 26.336C73.768 26.36 73.744 26.432 73.696 26.552L70.312 33.68C70.216 33.896 70.072 34.004 69.88 34.004C69.832 34.004 69.772 33.98 69.7 33.932C69.628 33.908 69.52 33.824 69.376 33.68C69.256 33.56 69.016 33.5 68.656 33.5H50.62C50.26 33.5 50.08 33.32 50.08 32.96V31.88C50.08 31.52 50.26 31.34 50.62 31.34C52.396 31.34 53.284 30.2 53.284 27.92V12.116C53.284 9.836 52.396 8.696 50.62 8.696C50.26 8.696 50.08 8.516 50.08 8.156V7.076C50.08 6.692 50.26 6.5 50.62 6.5H61.528C61.984 6.5 62.212 6.692 62.212 7.076V8.156C62.212 8.516 61.996 8.696 61.564 8.696H59.008V27.524C59.008 29.804 59.836 30.944 61.492 30.944H62.896C64.648 30.944 66.256 30.572 67.72 29.828C69.184 29.06 70.432 27.632 71.464 25.544L71.572 25.328C71.692 25.112 71.836 25.004 72.004 25.004C72.124 25.004 72.232 25.04 72.328 25.112L73.48 25.796ZM88.0488 6.068C89.9448 6.068 91.7208 6.44 93.3768 7.184C95.0568 7.928 96.5208 8.96 97.7688 10.28C99.0408 11.576 100.025 13.076 100.721 14.78C101.441 16.484 101.801 18.296 101.801 20.216C101.801 22.136 101.453 23.936 100.757 25.616C100.061 27.272 99.0888 28.724 97.8408 29.972C96.6168 31.22 95.2008 32.204 93.5928 32.924C91.9848 33.62 90.2688 33.968 88.4448 33.968C86.5488 33.968 84.7608 33.596 83.0808 32.852C81.4248 32.108 79.9728 31.088 78.7248 29.792C77.4768 28.472 76.4928 26.96 75.7728 25.256C75.0768 23.552 74.7288 21.752 74.7288 19.856C74.7288 17.984 75.0648 16.22 75.7368 14.564C76.4088 12.908 77.3448 11.444 78.5448 10.172C79.7688 8.876 81.1848 7.868 82.7928 7.148C84.4008 6.428 86.1528 6.068 88.0488 6.068ZM87.6528 9.236C85.2528 9.236 83.3928 10.04 82.0728 11.648C80.7528 13.232 80.0928 15.332 80.0928 17.948C80.0928 18.98 80.2008 20.084 80.4168 21.26C80.6328 22.436 80.9568 23.588 81.3888 24.716C81.8448 25.82 82.4208 26.828 83.1168 27.74C83.8128 28.652 84.6288 29.384 85.5648 29.936C86.5008 30.488 87.5808 30.764 88.8048 30.764C90.4368 30.764 91.8168 30.404 92.9448 29.684C94.0968 28.94 94.9608 27.92 95.5368 26.624C96.1368 25.304 96.4368 23.792 96.4368 22.088C96.4368 21.152 96.3288 20.108 96.1128 18.956C95.9208 17.804 95.5968 16.664 95.1408 15.536C94.7088 14.384 94.1448 13.34 93.4488 12.404C92.7768 11.444 91.9608 10.676 91.0008 10.1C90.0408 9.524 88.9248 9.236 87.6528 9.236ZM128.999 24.86C129.143 24.932 129.263 25.004 129.359 25.076C129.455 25.124 129.503 25.208 129.503 25.328C129.503 25.376 129.479 25.472 129.431 25.616C129.047 26.552 128.519 27.512 127.847 28.496C127.199 29.456 126.383 30.356 125.399 31.196C124.439 32.036 123.287 32.708 121.943 33.212C120.623 33.716 119.099 33.968 117.371 33.968C114.491 33.968 112.055 33.368 110.063 32.168C108.071 30.968 106.559 29.336 105.527 27.272C104.495 25.184 103.979 22.856 103.979 20.288C103.979 19.088 104.111 17.84 104.375 16.544C104.639 15.224 105.071 13.94 105.671 12.692C106.271 11.444 107.075 10.328 108.083 9.344C109.115 8.336 110.387 7.544 111.899 6.968C113.411 6.368 115.199 6.068 117.263 6.068C118.991 6.068 120.479 6.284 121.727 6.716C122.975 7.148 124.019 7.7 124.859 8.372C125.699 9.02 126.371 9.704 126.875 10.424C127.379 11.144 127.739 11.816 127.955 12.44C128.171 13.064 128.279 13.532 128.279 13.844C128.279 14.18 128.075 14.42 127.667 14.564L123.275 16.112C123.035 16.208 122.819 16.256 122.627 16.256C122.339 16.256 122.195 16.136 122.195 15.896C122.195 15.848 122.207 15.668 122.231 15.356C122.255 15.044 122.267 14.828 122.267 14.708C122.267 13.844 122.111 12.968 121.799 12.08C121.487 11.192 120.947 10.448 120.179 9.848C119.411 9.224 118.343 8.912 116.975 8.912C115.679 8.912 114.587 9.224 113.699 9.848C112.835 10.472 112.139 11.288 111.611 12.296C111.083 13.304 110.699 14.372 110.459 15.5C110.243 16.628 110.135 17.696 110.135 18.704C110.135 21.032 110.411 23.084 110.963 24.86C111.515 26.612 112.367 27.992 113.519 29C114.695 29.984 116.171 30.476 117.947 30.476C119.723 30.476 121.175 30.164 122.303 29.54C123.455 28.916 124.367 28.16 125.039 27.272C125.735 26.36 126.275 25.472 126.659 24.608C126.803 24.296 127.007 24.14 127.271 24.14C127.391 24.14 127.547 24.188 127.739 24.284L128.999 24.86ZM154.164 25.796C154.38 25.892 154.488 26.036 154.488 26.228C154.488 26.252 154.476 26.288 154.452 26.336C154.452 26.36 154.428 26.432 154.38 26.552L150.996 33.68C150.9 33.896 150.756 34.004 150.564 34.004C150.516 34.004 150.456 33.98 150.384 33.932C150.312 33.908 150.204 33.824 150.06 33.68C149.94 33.56 149.7 33.5 149.34 33.5H131.304C130.944 33.5 130.764 33.32 130.764 32.96V31.88C130.764 31.52 130.944 31.34 131.304 31.34C133.08 31.34 133.968 30.2 133.968 27.92V12.116C133.968 9.836 133.08 8.696 131.304 8.696C130.944 8.696 130.764 8.516 130.764 8.156V7.076C130.764 6.692 130.944 6.5 131.304 6.5H142.212C142.668 6.5 142.896 6.692 142.896 7.076V8.156C142.896 8.516 142.68 8.696 142.248 8.696H139.692V27.524C139.692 29.804 140.52 30.944 142.176 30.944H143.58C145.332 30.944 146.94 30.572 148.404 29.828C149.868 29.06 151.116 27.632 152.148 25.544L152.256 25.328C152.376 25.112 152.52 25.004 152.688 25.004C152.808 25.004 152.916 25.04 153.012 25.112L154.164 25.796ZM178.642 27.92C179.026 28.904 179.398 29.72 179.758 30.368C180.118 31.016 180.634 31.34 181.306 31.34C181.546 31.34 181.69 31.388 181.738 31.484C181.81 31.556 181.846 31.688 181.846 31.88V32.96C181.846 33.32 181.666 33.5 181.306 33.5H170.254C169.894 33.5 169.714 33.32 169.714 32.96V31.88C169.714 31.688 169.738 31.556 169.786 31.484C169.858 31.388 170.014 31.34 170.254 31.34C170.902 31.34 171.526 31.1 172.126 30.62C172.75 30.14 173.062 29.552 173.062 28.856C173.062 28.688 173.038 28.532 172.99 28.388C172.966 28.244 172.93 28.088 172.882 27.92L171.766 24.86H161.902L160.822 27.92C160.774 28.088 160.738 28.256 160.714 28.424C160.69 28.568 160.678 28.7 160.678 28.82C160.678 29.588 160.99 30.2 161.614 30.656C162.238 31.112 162.862 31.34 163.486 31.34C163.75 31.34 163.906 31.388 163.954 31.484C164.002 31.556 164.026 31.688 164.026 31.88V32.96C164.026 33.32 163.846 33.5 163.486 33.5H154.522C154.162 33.5 153.982 33.32 153.982 32.96V31.88C153.982 31.688 154.006 31.556 154.054 31.484C154.126 31.388 154.282 31.34 154.522 31.34C155.242 31.34 155.782 31.004 156.142 30.332C156.526 29.66 156.886 28.856 157.222 27.92L164.962 6.968C165.058 6.656 165.262 6.5 165.574 6.5H169.93C170.242 6.5 170.446 6.644 170.542 6.932L178.642 27.92ZM163.018 21.728H170.614L166.726 11.216L163.018 21.728ZM200.854 6.5C200.974 6.5 201.106 6.488 201.25 6.464C201.418 6.416 201.586 6.308 201.754 6.14C201.85 6.044 201.958 5.996 202.078 5.996C202.27 5.996 202.414 6.104 202.51 6.32L205.354 11.576C205.426 11.72 205.462 11.828 205.462 11.9C205.462 12.092 205.366 12.236 205.174 12.332L203.662 13.16C203.518 13.232 203.398 13.268 203.302 13.268C203.158 13.268 203.026 13.16 202.906 12.944L202.798 12.728C202.198 11.528 201.334 10.676 200.206 10.172C199.078 9.668 197.782 9.416 196.318 9.416H194.554V27.92C194.554 28.88 194.734 29.696 195.094 30.368C195.454 31.016 196.09 31.34 197.002 31.34H197.254C197.614 31.34 197.794 31.52 197.794 31.88V32.96C197.794 33.32 197.614 33.5 197.254 33.5H186.166C185.806 33.5 185.626 33.32 185.626 32.96V31.88C185.626 31.52 185.806 31.34 186.166 31.34H186.382C187.294 31.34 187.93 31.016 188.29 30.368C188.65 29.696 188.83 28.88 188.83 27.92V9.416H187.066C185.602 9.416 184.306 9.668 183.178 10.172C182.05 10.676 181.186 11.528 180.586 12.728L180.478 12.944C180.358 13.16 180.226 13.268 180.082 13.268C179.986 13.268 179.866 13.232 179.722 13.16L178.21 12.332C178.018 12.236 177.922 12.092 177.922 11.9C177.922 11.828 177.958 11.72 178.03 11.576L180.874 6.32C180.994 6.104 181.138 5.996 181.306 5.996C181.426 5.996 181.534 6.044 181.63 6.14C181.798 6.308 181.954 6.416 182.098 6.464C182.266 6.488 182.41 6.5 182.53 6.5H200.854ZM230.066 25.796C230.282 25.892 230.39 26.036 230.39 26.228C230.39 26.252 230.378 26.288 230.354 26.336C230.354 26.36 230.33 26.432 230.282 26.552L226.898 33.68C226.802 33.896 226.658 34.004 226.466 34.004C226.418 34.004 226.358 33.98 226.286 33.932C226.214 33.908 226.106 33.824 225.962 33.68C225.842 33.56 225.602 33.5 225.242 33.5H207.206C206.846 33.5 206.666 33.32 206.666 32.96V31.88C206.666 31.52 206.846 31.34 207.206 31.34C208.982 31.34 209.87 30.2 209.87 27.92V12.116C209.87 9.836 208.982 8.696 207.206 8.696C206.846 8.696 206.666 8.516 206.666 8.156V7.076C206.666 6.692 206.846 6.5 207.206 6.5H218.114C218.57 6.5 218.798 6.692 218.798 7.076V8.156C218.798 8.516 218.582 8.696 218.15 8.696H215.594V27.524C215.594 29.804 216.422 30.944 218.078 30.944H219.482C221.234 30.944 222.842 30.572 224.306 29.828C225.77 29.06 227.018 27.632 228.05 25.544L228.158 25.328C228.278 25.112 228.422 25.004 228.59 25.004C228.71 25.004 228.818 25.04 228.914 25.112L230.066 25.796ZM244.635 6.068C246.531 6.068 248.307 6.44 249.963 7.184C251.643 7.928 253.107 8.96 254.355 10.28C255.627 11.576 256.611 13.076 257.307 14.78C258.027 16.484 258.387 18.296 258.387 20.216C258.387 22.136 258.039 23.936 257.343 25.616C256.647 27.272 255.675 28.724 254.427 29.972C253.203 31.22 251.787 32.204 250.179 32.924C248.571 33.62 246.855 33.968 245.031 33.968C243.135 33.968 241.347 33.596 239.667 32.852C238.011 32.108 236.559 31.088 235.311 29.792C234.063 28.472 233.079 26.96 232.359 25.256C231.663 23.552 231.315 21.752 231.315 19.856C231.315 17.984 231.651 16.22 232.323 14.564C232.995 12.908 233.931 11.444 235.131 10.172C236.355 8.876 237.771 7.868 239.379 7.148C240.987 6.428 242.739 6.068 244.635 6.068ZM244.239 9.236C241.839 9.236 239.979 10.04 238.659 11.648C237.339 13.232 236.679 15.332 236.679 17.948C236.679 18.98 236.787 20.084 237.003 21.26C237.219 22.436 237.543 23.588 237.975 24.716C238.431 25.82 239.007 26.828 239.703 27.74C240.399 28.652 241.215 29.384 242.151 29.936C243.087 30.488 244.167 30.764 245.391 30.764C247.023 30.764 248.403 30.404 249.531 29.684C250.683 28.94 251.547 27.92 252.123 26.624C252.723 25.304 253.023 23.792 253.023 22.088C253.023 21.152 252.915 20.108 252.699 18.956C252.507 17.804 252.183 16.664 251.727 15.536C251.295 14.384 250.731 13.34 250.035 12.404C249.363 11.444 248.547 10.676 247.587 10.1C246.627 9.524 245.511 9.236 244.239 9.236ZM289.567 6.5C289.927 6.5 290.107 6.68 290.107 7.04V8.12C290.107 8.48 289.927 8.66 289.567 8.66C288.679 8.66 288.019 8.984 287.587 9.632C287.155 10.28 286.939 11.096 286.939 12.08V32.96C286.939 33.32 286.759 33.5 286.399 33.5H283.915C283.675 33.5 283.459 33.392 283.267 33.176L266.239 13.592V27.92C266.239 28.88 266.455 29.696 266.887 30.368C267.343 31.016 268.015 31.34 268.903 31.34C269.263 31.34 269.443 31.52 269.443 31.88V32.96C269.443 33.32 269.263 33.5 268.903 33.5H260.011C259.651 33.5 259.471 33.32 259.471 32.96V31.88C259.471 31.52 259.651 31.34 260.011 31.34C260.899 31.34 261.559 31.016 261.991 30.368C262.423 29.696 262.639 28.88 262.639 27.92V9.56C262.279 9.248 261.919 9.02 261.559 8.876C261.223 8.732 260.827 8.66 260.371 8.66C260.011 8.66 259.831 8.48 259.831 8.12V7.04C259.831 6.68 260.011 6.5 260.371 6.5H266.599C266.863 6.5 267.079 6.608 267.247 6.824L283.339 25.184V12.08C283.339 11.096 283.111 10.28 282.655 9.632C282.223 8.984 281.563 8.66 280.675 8.66C280.315 8.66 280.135 8.48 280.135 8.12V7.04C280.135 6.68 280.315 6.5 280.675 6.5H289.567Z" fill="#280F00"/>
<rect x="320" y="13.5" width="13" height="13" rx="6.5" fill="#280F00"/>
<path d="M369.872 32.448C368.528 32.448 367.344 32.128 366.32 31.488C365.317 30.848 364.528 29.952 363.952 28.8C363.397 27.648 363.12 26.3253 363.12 24.832C363.12 23.2107 363.44 21.7707 364.08 20.512C364.72 19.2533 365.584 18.2613 366.672 17.536C367.781 16.8107 369.04 16.448 370.448 16.448C371.195 16.448 371.931 16.5973 372.656 16.896C373.381 17.1733 373.989 17.5573 374.48 18.048V16.736C374.672 16.672 374.896 16.6187 375.152 16.576C375.408 16.5333 375.675 16.512 375.952 16.512C376.464 16.512 376.944 16.5867 377.392 16.736V26.4C377.392 27.5733 377.541 28.416 377.84 28.928C378.16 29.44 378.661 29.696 379.344 29.696C379.643 29.696 379.867 29.824 380.016 30.08C380.187 30.336 380.272 30.6773 380.272 31.104C380.272 31.4453 380.176 31.7547 379.984 32.032C379.813 32.3093 379.525 32.448 379.12 32.448C377.093 32.448 375.728 31.616 375.024 29.952C374.405 30.7413 373.659 31.36 372.784 31.808C371.909 32.2347 370.939 32.448 369.872 32.448ZM366.096 24.832C366.096 26.3467 366.437 27.5413 367.12 28.416C367.824 29.2693 368.784 29.696 370 29.696C371.344 29.696 372.421 29.2373 373.232 28.32C374.064 27.4027 374.48 26.1973 374.48 24.704V21.12C374.053 20.544 373.509 20.0853 372.848 19.744C372.187 19.3813 371.504 19.2 370.8 19.2C369.883 19.2 369.072 19.4453 368.368 19.936C367.664 20.4267 367.109 21.0987 366.704 21.952C366.299 22.784 366.096 23.744 366.096 24.832ZM379.119 32.448C378.842 32.448 378.618 32.32 378.447 32.064C378.276 31.808 378.191 31.4773 378.191 31.072C378.191 30.6453 378.298 30.3147 378.511 30.08C378.703 29.824 378.97 29.696 379.311 29.696C380.25 29.696 381.146 29.28 381.999 28.448C382.874 27.5947 383.844 26.176 384.911 24.192V7.072C384.911 4.93866 385.359 3.296 386.255 2.144C387.172 0.991999 388.495 0.426665 390.223 0.447998C391.802 0.469331 393.028 1.06666 393.903 2.24C394.799 3.41333 395.247 4.93866 395.247 6.816C395.247 8.24533 395.002 9.81333 394.511 11.52C394.042 13.2267 393.391 14.8907 392.559 16.512C392.858 16.4693 393.167 16.448 393.487 16.448C394.874 16.448 395.983 16.864 396.815 17.696C397.647 18.528 398.063 19.6267 398.063 20.992C398.063 22.1013 397.668 23.0827 396.879 23.936C396.09 24.7893 395.034 25.4293 393.711 25.856C394.138 26.1547 394.532 26.5067 394.895 26.912L395.951 28.128C396.868 29.1733 397.839 29.696 398.863 29.696C399.14 29.696 399.364 29.824 399.535 30.08C399.706 30.336 399.791 30.6773 399.791 31.104C399.791 32 399.396 32.448 398.607 32.448C397.903 32.448 397.199 32.2667 396.495 31.904C395.812 31.52 395.151 30.9973 394.511 30.336L393.167 28.896C392.655 28.3413 392.175 27.9147 391.727 27.616C391.279 27.296 390.756 27.0827 390.159 26.976C389.583 26.848 388.826 26.784 387.887 26.784C387.866 27.1253 387.855 27.4667 387.855 27.808V32C387.642 32.064 387.407 32.1173 387.151 32.16C386.895 32.2027 386.65 32.224 386.415 32.224C385.924 32.224 385.423 32.1493 384.911 32V29.376C384.036 30.5067 383.14 31.3067 382.223 31.776C381.327 32.224 380.292 32.448 379.119 32.448ZM387.759 7.04V19.392C388.719 17.92 389.54 16.4373 390.223 14.944C390.927 13.4507 391.46 12.0107 391.823 10.624C392.207 9.216 392.399 7.936 392.399 6.784C392.399 5.58933 392.196 4.68267 391.791 4.064C391.407 3.424 390.842 3.104 390.095 3.104C388.538 3.104 387.759 4.416 387.759 7.04ZM392.975 18.976C391.844 18.976 390.852 19.4773 389.999 20.48C389.167 21.4827 388.57 22.8053 388.207 24.448C388.57 24.4907 388.986 24.512 389.455 24.512C390.564 24.512 391.556 24.3627 392.431 24.064C393.306 23.7653 393.988 23.36 394.479 22.848C394.991 22.336 395.247 21.76 395.247 21.12C395.247 20.48 395.034 19.968 394.607 19.584C394.202 19.1787 393.658 18.976 392.975 18.976ZM398.65 32.448C398.373 32.448 398.149 32.32 397.978 32.064C397.808 31.808 397.722 31.4773 397.722 31.072C397.722 30.1547 398.106 29.696 398.874 29.696C399.557 29.696 400.314 29.28 401.146 28.448C401.978 27.5947 402.949 26.2293 404.058 24.352L407.482 18.56C407.44 18.2613 407.418 17.9413 407.418 17.6C407.418 16.5333 407.61 15.744 407.994 15.232C408.4 14.72 408.73 14.4107 408.986 14.304C409.349 14.2187 409.733 14.2293 410.138 14.336C410.565 14.4213 410.949 14.5707 411.29 14.784C411.632 14.9973 411.866 15.2533 411.994 15.552C411.909 15.936 411.749 16.3947 411.514 16.928C411.28 17.4613 410.906 18.176 410.394 19.072C410.544 19.3067 410.736 19.5413 410.97 19.776C411.205 20.0107 411.493 20.2667 411.834 20.544L414.266 22.528C415.141 23.232 415.792 23.968 416.218 24.736C416.666 25.4827 416.89 26.3253 416.89 27.264C416.89 28.3947 416.57 29.3973 415.93 30.272C416.037 30.5067 416.09 30.784 416.09 31.104C416.09 31.5093 415.984 31.8293 415.77 32.064C415.578 32.32 415.301 32.448 414.938 32.448C414.597 32.448 414.266 32.4267 413.946 32.384C413.626 32.3413 413.274 32.288 412.89 32.224C412.314 32.3733 411.706 32.448 411.066 32.448C410.32 32.448 409.573 32.3307 408.826 32.096C408.08 31.8827 407.301 31.5307 406.49 31.04C406.448 29.9093 406.874 29.0773 407.77 28.544C408.944 29.312 410.053 29.696 411.098 29.696C411.994 29.696 412.709 29.4613 413.242 28.992C413.776 28.5013 414.042 27.8827 414.042 27.136C414.042 26.1973 413.53 25.3227 412.506 24.512L410.074 22.592C409.648 22.2507 409.264 21.8987 408.922 21.536L405.722 26.944C404.549 28.928 403.418 30.3467 402.33 31.2C401.264 32.032 400.037 32.448 398.65 32.448ZM414.952 32.448C414.674 32.448 414.45 32.32 414.28 32.064C414.088 31.808 413.992 31.4773 413.992 31.072C413.992 30.176 414.386 29.728 415.176 29.728C416.712 29.728 418.12 29.1947 419.4 28.128C420.68 27.04 421.821 25.4933 422.824 23.488V7.072C422.824 4.93866 423.272 3.296 424.168 2.144C425.085 0.991999 426.408 0.426665 428.136 0.447998C429.714 0.469331 430.941 1.06666 431.816 2.24C432.712 3.41333 433.16 4.93866 433.16 6.816C433.16 9.93067 432.221 13.3973 430.344 17.216C430.493 17.1947 430.642 17.184 430.792 17.184C432.392 17.184 433.661 17.7493 434.6 18.88C435.56 20.0107 436.04 21.5253 436.04 23.424V26.176C436.04 27.4133 436.189 28.3093 436.488 28.864C436.808 29.4187 437.33 29.696 438.056 29.696C438.29 29.696 438.546 29.6427 438.824 29.536C439.101 29.4293 439.389 29.2693 439.688 29.056C440.05 29.2267 440.349 29.5253 440.584 29.952C440.818 30.3573 440.925 30.7627 440.904 31.168C440.562 31.552 440.125 31.8613 439.592 32.096C439.058 32.3307 438.482 32.448 437.864 32.448C436.328 32.448 435.144 31.9573 434.312 30.976C433.501 29.9733 433.096 28.5653 433.096 26.752V23.36C433.096 22.272 432.85 21.4293 432.36 20.832C431.89 20.2133 431.218 19.904 430.344 19.904C429.49 19.904 428.722 20.192 428.04 20.768C427.357 21.3227 426.813 22.0907 426.408 23.072C426.002 24.0533 425.789 25.184 425.768 26.464V32C425.554 32.064 425.32 32.1173 425.064 32.16C424.808 32.2027 424.562 32.224 424.328 32.224C423.837 32.224 423.336 32.1493 422.824 32V28.416C421.778 29.7813 420.573 30.7947 419.208 31.456C417.842 32.1173 416.424 32.448 414.952 32.448ZM425.672 7.04V19.648C427.165 17.3867 428.306 15.1467 429.096 12.928C429.906 10.7093 430.312 8.66133 430.312 6.784C430.312 5.58933 430.109 4.68267 429.704 4.064C429.32 3.424 428.754 3.104 428.008 3.104C426.45 3.104 425.672 4.416 425.672 7.04Z" fill="#280F00"/>
</svg>
