<svg width="212" height="212" viewBox="0 0 212 212" fill="none" xmlns="http://www.w3.org/2000/svg">
<rect width="212" height="212" fill="#FF5C00"/>
<path d="M96.28 118.456C96.856 118.712 97.144 119.096 97.144 119.608C97.144 119.672 97.112 119.768 97.048 119.896C97.048 119.96 96.984 120.152 96.856 120.472L87.832 139.48C87.576 140.056 87.192 140.344 86.68 140.344C86.552 140.344 86.392 140.28 86.2 140.152C86.008 140.088 85.72 139.864 85.336 139.48C85.016 139.16 84.376 139 83.416 139H35.32C34.36 139 33.88 138.52 33.88 137.56V134.68C33.88 133.72 34.36 133.24 35.32 133.24C40.056 133.24 42.424 130.2 42.424 124.12V81.976C42.424 75.896 40.056 72.856 35.32 72.856C34.36 72.856 33.88 72.376 33.88 71.416V68.536C33.88 67.512 34.36 67 35.32 67H64.408C65.624 67 66.232 67.512 66.232 68.536V71.416C66.232 72.376 65.656 72.856 64.504 72.856H57.688V123.064C57.688 129.144 59.896 132.184 64.312 132.184H68.056C72.728 132.184 77.016 131.192 80.92 129.208C84.824 127.16 88.152 123.352 90.904 117.784L91.192 117.208C91.512 116.632 91.896 116.344 92.344 116.344C92.664 116.344 92.952 116.44 93.208 116.632L96.28 118.456Z" fill="white"/>
<path d="M179.08 115.96C179.464 116.152 179.784 116.344 180.04 116.536C180.296 116.664 180.424 116.888 180.424 117.208C180.424 117.336 180.36 117.592 180.232 117.976C179.208 120.472 177.8 123.032 176.008 125.656C174.28 128.216 172.104 130.616 169.48 132.856C166.92 135.096 163.848 136.888 160.264 138.232C156.744 139.576 152.68 140.248 148.072 140.248C140.392 140.248 133.896 138.648 128.584 135.448C123.272 132.248 119.24 127.896 116.488 122.392C113.736 116.824 112.36 110.616 112.36 103.768C112.36 100.568 112.712 97.24 113.416 93.784C114.12 90.264 115.272 86.84 116.872 83.512C118.472 80.184 120.616 77.208 123.304 74.584C126.056 71.896 129.448 69.784 133.48 68.248C137.512 66.648 142.28 65.848 147.784 65.848C152.392 65.848 156.36 66.424 159.688 67.576C163.016 68.728 165.8 70.2 168.04 71.992C170.28 73.72 172.072 75.544 173.416 77.464C174.76 79.384 175.72 81.176 176.296 82.84C176.872 84.504 177.16 85.752 177.16 86.584C177.16 87.48 176.616 88.12 175.528 88.504L163.816 92.632C163.176 92.888 162.6 93.016 162.088 93.016C161.32 93.016 160.936 92.696 160.936 92.056C160.936 91.928 160.968 91.448 161.032 90.616C161.096 89.784 161.128 89.208 161.128 88.888C161.128 86.584 160.712 84.248 159.88 81.88C159.048 79.512 157.608 77.528 155.56 75.928C153.512 74.264 150.664 73.432 147.016 73.432C143.56 73.432 140.648 74.264 138.28 75.928C135.976 77.592 134.12 79.768 132.712 82.456C131.304 85.144 130.28 87.992 129.64 91C129.064 94.008 128.776 96.856 128.776 99.544C128.776 105.752 129.512 111.224 130.984 115.96C132.456 120.632 134.728 124.312 137.8 127C140.936 129.624 144.872 130.936 149.608 130.936C154.344 130.936 158.216 130.104 161.224 128.44C164.296 126.776 166.728 124.76 168.52 122.392C170.376 119.96 171.816 117.592 172.84 115.288C173.224 114.456 173.768 114.04 174.472 114.04C174.792 114.04 175.208 114.168 175.72 114.424L179.08 115.96Z" fill="white"/>
<path d="M86.44 69.424C88.968 69.424 91.336 69.92 93.544 70.912C95.784 71.904 97.736 73.28 99.4 75.04C101.096 76.768 102.408 78.768 103.336 81.04C104.296 83.312 104.776 85.728 104.776 88.288C104.776 90.848 104.312 93.248 103.384 95.488C102.456 97.696 101.16 99.632 99.496 101.296C97.864 102.96 95.976 104.272 93.832 105.232C91.688 106.16 89.4 106.624 86.968 106.624C84.44 106.624 82.056 106.128 79.816 105.136C77.608 104.144 75.672 102.784 74.008 101.056C72.344 99.296 71.032 97.28 70.072 95.008C69.144 92.736 68.68 90.336 68.68 87.808C68.68 85.312 69.128 82.96 70.024 80.752C70.92 78.544 72.168 76.592 73.768 74.896C75.4 73.168 77.288 71.824 79.432 70.864C81.576 69.904 83.912 69.424 86.44 69.424ZM85.912 73.648C82.712 73.648 80.232 74.72 78.472 76.864C76.712 78.976 75.832 81.776 75.832 85.264C75.832 86.64 75.976 88.112 76.264 89.68C76.552 91.248 76.984 92.784 77.56 94.288C78.168 95.76 78.936 97.104 79.864 98.32C80.792 99.536 81.88 100.512 83.128 101.248C84.376 101.984 85.816 102.352 87.448 102.352C89.624 102.352 91.464 101.872 92.968 100.912C94.504 99.92 95.656 98.56 96.424 96.832C97.224 95.072 97.624 93.056 97.624 90.784C97.624 89.536 97.48 88.144 97.192 86.608C96.936 85.072 96.504 83.552 95.896 82.048C95.32 80.512 94.568 79.12 93.64 77.872C92.744 76.592 91.656 75.568 90.376 74.8C89.096 74.032 87.608 73.648 85.912 73.648Z" fill="white"/>
</svg>
