<svg width="23" height="22" viewBox="0 0 23 22" fill="none" xmlns="http://www.w3.org/2000/svg">
<path d="M15.111 6.74194C14.4677 2.78105 12.9505 0 11.1848 0C9.4191 0 7.90185 2.78105 7.25858 6.74194H15.111ZM6.92585 11C6.92585 11.9847 6.97909 12.9294 7.07225 13.8387H15.2929C15.386 12.9294 15.4393 11.9847 15.4393 11C15.4393 10.0153 15.386 9.07056 15.2929 8.16129H7.07225C6.97909 9.07056 6.92585 10.0153 6.92585 11ZM21.3308 6.74194C20.062 3.73024 17.4933 1.40161 14.3213 0.46129C15.4038 1.96048 16.1491 4.21814 16.5395 6.74194H21.3308ZM8.04382 0.46129C4.87624 1.40161 2.30314 3.73024 1.03878 6.74194H5.83007C6.21603 4.21814 6.96134 1.96048 8.04382 0.46129ZM21.8055 8.16129H16.7169C16.8101 9.09274 16.8633 10.0464 16.8633 11C16.8633 11.9536 16.8101 12.9073 16.7169 13.8387H21.801C22.045 12.9294 22.1826 11.9847 22.1826 11C22.1826 10.0153 22.045 9.07056 21.8055 8.16129ZM5.50621 11C5.50621 10.0464 5.55945 9.09274 5.65261 8.16129H0.564085C0.32452 9.07056 0.182556 10.0153 0.182556 11C0.182556 11.9847 0.32452 12.9294 0.564085 13.8387H5.64817C5.55945 12.9073 5.50621 11.9536 5.50621 11ZM7.25858 15.2581C7.90185 19.219 9.4191 22 11.1848 22C12.9505 22 14.4677 19.219 15.111 15.2581H7.25858ZM14.3257 21.5387C17.4933 20.5984 20.0664 18.2698 21.3352 15.2581H16.5439C16.1535 17.7819 15.4082 20.0395 14.3257 21.5387ZM1.03878 15.2581C2.30758 18.2698 4.87624 20.5984 8.04825 21.5387C6.96578 20.0395 6.22047 17.7819 5.83007 15.2581H1.03878Z" fill="#FF5C00"/>
</svg>
