<svg width="167" height="167" viewBox="0 0 167 167" fill="none" xmlns="http://www.w3.org/2000/svg">
<mask id="mask0_2_26" style="mask-type:alpha" maskUnits="userSpaceOnUse" x="-9" y="-9" width="185" height="185">
<rect x="-4.5" y="-4.5" width="176" height="176" fill="#D9D9D9" stroke="black" stroke-width="9"/>
</mask>
<g mask="url(#mask0_2_26)">
<path d="M83.4588 164.066C72.4491 164.066 62.1508 162.025 52.5638 157.942C42.9767 153.86 34.6267 148.232 27.5138 141.057C20.4008 133.882 14.8032 125.47 10.721 115.821C6.63877 106.172 4.59766 95.8431 4.59766 84.8335C4.59766 73.8239 6.63877 63.5255 10.721 53.9385C14.8032 44.3514 20.4008 36.0324 27.5138 28.9813C34.6267 21.9302 42.9767 16.3635 52.5638 12.2813C62.1508 8.19904 72.4491 6.15793 83.4588 6.15793C94.4684 6.15793 104.767 8.19904 114.354 12.2813C123.941 16.3635 132.291 21.9302 139.404 28.9813C146.517 36.0324 152.145 44.3514 156.289 53.9385C160.433 63.5255 162.505 73.8239 162.505 84.8335C162.505 95.8431 160.433 106.172 156.289 115.821C152.145 125.47 146.517 133.882 139.404 141.057C132.291 148.232 123.941 153.86 114.354 157.942C104.767 162.025 94.4684 164.066 83.4588 164.066ZM83.2732 147.18C87.2317 142.851 90.6336 137.871 93.4788 132.243C96.324 126.614 98.7362 119.842 100.715 111.925H66.3877C67.9958 119.347 70.2225 125.965 73.0677 131.779C75.9128 137.593 79.3147 142.727 83.2732 147.18ZM68.0577 144.953C64.8414 140.5 62.2127 135.552 60.1715 130.109C58.1304 124.666 56.3677 118.605 54.8832 111.925H27.7921C32.2454 120.584 37.5028 127.357 43.5643 132.243C49.6258 137.129 57.7902 141.366 68.0577 144.953ZM98.6743 144.768C107.334 142.046 115.158 137.871 122.147 132.243C129.136 126.614 134.734 119.842 138.94 111.925H112.22C110.612 118.481 108.756 124.481 106.653 129.923C104.55 135.366 101.891 140.315 98.6743 144.768ZM24.2665 101.348H52.8421C52.471 98.0079 52.2545 95.039 52.1927 92.4413C52.1308 89.8435 52.0999 87.3076 52.0999 84.8335C52.0999 81.7409 52.1617 79.0503 52.2854 76.7618C52.4091 74.4733 52.6565 71.8446 53.0277 68.8757H24.2665C23.4006 71.8446 22.813 74.4424 22.5038 76.669C22.1945 78.8957 22.0399 81.6172 22.0399 84.8335C22.0399 87.9261 22.1945 90.7094 22.5038 93.1835C22.813 95.6576 23.4006 98.379 24.2665 101.348ZM64.3465 101.348H102.757C103.128 97.5131 103.344 94.4205 103.406 92.0701C103.468 89.7198 103.499 87.3076 103.499 84.8335C103.499 82.3594 103.468 80.04 103.406 77.8752C103.344 75.7103 103.128 72.7105 102.757 68.8757H64.3465C63.8517 72.7105 63.5425 75.7103 63.4188 77.8752C63.2951 80.04 63.2332 82.3594 63.2332 84.8335C63.2332 87.3076 63.2951 89.7198 63.4188 92.0701C63.5425 94.4205 63.8517 97.5131 64.3465 101.348ZM113.89 101.348H142.465C143.208 98.379 143.764 95.6576 144.135 93.1835C144.507 90.7094 144.692 87.9261 144.692 84.8335C144.692 81.6172 144.507 78.8957 144.135 76.669C143.764 74.4424 143.208 71.8446 142.465 68.8757H114.075C114.199 73.329 114.323 76.6072 114.447 78.7102C114.57 80.8131 114.632 82.8542 114.632 84.8335C114.632 87.4313 114.539 89.9053 114.354 92.2557C114.168 94.6061 114.014 97.6368 113.89 101.348ZM112.034 58.1135H138.94C134.981 49.8253 129.507 42.867 122.518 37.2385C115.529 31.61 107.519 27.6824 98.4888 25.4557C101.705 29.909 104.365 34.7644 106.468 40.0218C108.571 45.2792 110.426 51.3098 112.034 58.1135ZM66.3877 58.1135H100.901C99.664 51.8046 97.4373 45.5885 94.221 39.4652C91.0047 33.3418 87.3554 28.0535 83.2732 23.6002C79.6858 26.8164 76.5623 31.0842 73.9027 36.4035C71.243 41.7227 68.738 48.9594 66.3877 58.1135ZM27.7921 58.1135H55.0688C56.4295 51.6809 58.0686 45.8668 59.986 40.6713C61.9034 35.4757 64.5321 30.4657 67.8721 25.6413C58.718 27.8679 50.7701 31.7027 44.0282 37.1457C37.2864 42.5887 31.8743 49.5779 27.7921 58.1135Z" fill="white"/>
</g>
<mask id="mask1_2_26" style="mask-type:alpha" maskUnits="userSpaceOnUse" x="-6" y="-6" width="179" height="179">
<rect x="-3" y="-3" width="173" height="173" fill="#D9D9D9" stroke="#010101" stroke-width="6" stroke-linejoin="round"/>
</mask>
<g mask="url(#mask1_2_26)">
<path d="M83.0574 110.563C83.1208 110.534 83.1832 110.502 83.2444 110.468C83.2686 110.455 83.2902 110.443 83.3091 110.434C83.4599 110.467 83.6524 110.523 83.8903 110.616L108.441 121.854C109.63 122.473 110.992 122.796 112.435 122.556C113.9 122.311 115.107 121.543 116.064 120.587C117.053 119.598 117.776 118.393 118.089 116.985C118.399 115.592 118.263 114.196 117.85 112.874C117.822 112.785 117.79 112.698 117.755 112.612L89.9213 45.9863C89.9071 45.9524 89.8924 45.9189 89.877 45.8855C89.3228 44.6849 88.482 43.6294 87.297 42.8958C86.1211 42.1679 84.8075 41.8813 83.5 41.8813C82.1925 41.8813 80.8789 42.1679 79.703 42.8958C78.518 43.6294 77.6772 44.6849 77.123 45.8855C77.1076 45.9189 77.0929 45.9524 77.0787 45.9863L49.2454 112.612C49.2096 112.698 49.1778 112.785 49.1501 112.874C48.7368 114.196 48.6014 115.592 48.911 116.985C49.2238 118.393 49.9466 119.598 50.936 120.587C51.9167 121.568 53.1475 122.322 54.6273 122.559C56.0881 122.792 57.4768 122.472 58.7047 121.866L83.0574 110.563Z" fill="#4000FF" stroke="#010101" stroke-width="6" stroke-linejoin="round"/>
</g>
</svg>
